<svg xmlns="http://www.w3.org/2000/svg" version="1.1" xmlns:xlink="http://www.w3.org/1999/xlink"
    xmlns:svgjs="http://svgjs.dev/svgjs" width="64px" height="64px"><svg xmlns="http://www.w3.org/2000/svg"
        viewBox="0 0 64 64" width="64px" height="64px" xmlns:bx="https://boxy-svg.com">
        <ellipse style="fill: rgb(43, 76, 105);" cx="32" cy="32" rx="32" ry="32"></ellipse>
        <path
            d="M 17.941 20.953 C 20.423 20.953 22.569 21.401 24.381 22.297 C 26.187 23.191 27.581 24.463 28.561 26.115 C 29.538 27.766 30.027 29.73 30.027 32.001 C 30.027 34.272 29.538 36.235 28.561 37.887 C 27.581 39.538 26.187 40.811 24.381 41.704 C 22.569 42.6 20.423 43.046 17.941 43.046 L 10.431 43.046 L 10.397 41.721 C 11.008 41.721 11.644 41.721 12.308 41.721 C 12.972 41.721 13.612 41.721 14.233 41.721 C 14.852 41.721 15.415 41.721 15.922 41.721 C 16.426 41.721 16.826 41.721 17.12 41.721 C 17.413 41.721 17.562 41.721 17.562 41.721 C 19.076 41.721 20.381 41.326 21.475 40.538 C 22.569 39.748 23.409 38.627 24.001 37.177 C 24.588 35.725 24.883 33.999 24.883 32.001 C 24.883 30.002 24.588 28.277 24.001 26.824 C 23.409 25.374 22.569 24.253 21.475 23.464 C 20.381 22.676 19.076 22.281 17.562 22.281 C 17.562 22.281 17.408 22.281 17.105 22.281 C 16.8 22.281 16.383 22.281 15.858 22.281 C 15.332 22.281 14.742 22.281 14.09 22.281 C 13.438 22.281 12.764 22.281 12.071 22.281 C 11.377 22.281 10.714 22.281 10.082 22.281 L 10.082 20.953 L 17.941 20.953 M 13.648 20.953 L 13.648 43.046 L 8.914 43.046 L 8.914 20.953 L 13.648 20.953 M 9.008 40.744 L 9.008 43.046 L 6.485 43.046 L 6.485 42.73 C 6.485 42.73 6.552 42.73 6.691 42.73 C 6.827 42.73 6.894 42.73 6.894 42.73 C 7.443 42.73 7.909 42.536 8.299 42.147 C 8.689 41.756 8.892 41.289 8.914 40.744 L 9.008 40.744 M 9.008 23.258 L 8.914 23.258 C 8.914 22.713 8.715 22.243 8.313 21.854 C 7.916 21.466 7.443 21.271 6.894 21.271 C 6.894 21.271 6.832 21.271 6.707 21.271 C 6.579 21.271 6.516 21.271 6.516 21.271 L 6.485 20.953 L 9.008 20.953 L 9.008 23.258 M 55.463 34.208 L 55.463 39.417 C 54.959 40.048 54.208 40.678 53.206 41.31 C 52.209 41.94 51.009 42.462 49.611 42.872 C 48.209 43.282 46.67 43.488 44.985 43.488 C 42.587 43.488 40.494 43.021 38.706 42.085 C 36.918 41.146 35.53 39.816 34.541 38.09 C 33.551 36.368 33.057 34.327 33.057 31.969 C 33.057 29.612 33.546 27.582 34.524 25.879 C 35.502 24.174 36.901 22.855 38.721 21.917 C 40.543 20.981 42.694 20.513 45.177 20.513 C 46.332 20.513 47.458 20.591 48.552 20.75 C 49.646 20.909 50.658 21.114 51.58 21.367 C 52.509 21.617 53.278 21.912 53.887 22.249 L 53.951 27.646 L 53.666 27.646 C 53.266 26.214 52.688 25.074 51.931 24.223 C 51.172 23.369 50.293 22.758 49.295 22.392 C 48.294 22.024 47.238 21.839 46.123 21.839 C 44.397 21.839 42.945 22.255 41.768 23.086 C 40.588 23.915 39.7 25.099 39.101 26.637 C 38.503 28.171 38.203 30.012 38.203 32.159 C 38.203 34.179 38.482 35.94 39.039 37.445 C 39.594 38.948 40.409 40.107 41.484 40.916 C 42.556 41.726 43.861 42.141 45.398 42.163 C 46.176 42.163 46.927 42.042 47.654 41.799 C 48.381 41.558 49.016 41.205 49.561 40.744 C 50.11 40.28 50.499 39.712 50.731 39.039 L 50.762 34.208 C 50.762 33.263 50.226 32.789 49.153 32.789 L 48.647 32.789 L 48.647 32.474 L 57.516 32.474 L 57.516 32.789 L 57.043 32.789 C 55.949 32.789 55.421 33.263 55.463 34.208"
            fill-rule="nonzero" style="fill: rgb(255, 255, 255);" id="SvgjsPath1001"></path>
    </svg>
    <style>
        @media (prefers-color-scheme: light) {
            :root {
                filter: none;
            }
        }

        @media (prefers-color-scheme: dark) {
            :root {
                filter: none;
            }
        }
    </style>
</svg>