<?xml version="1.0" encoding="utf-8"?>
<svg xmlns="http://www.w3.org/2000/svg" viewBox="0 0 64 64" width="64px" height="64px" xmlns:bx="https://boxy-svg.com">
  <rect width="64" height="64" style="paint-order: markers; fill: rgb(34, 87, 119); pointer-events: none;"/>
  <path d="M 24.691 26.257 C 25.981 26.257 27.097 26.49 28.038 26.955 C 28.978 27.42 29.703 28.081 30.212 28.94 C 30.72 29.799 30.974 30.819 30.974 32 C 30.974 33.181 30.72 34.201 30.212 35.06 C 29.703 35.918 28.978 36.58 28.038 37.045 C 27.097 37.51 25.981 37.742 24.691 37.742 L 20.786 37.742 L 20.769 37.053 C 21.087 37.053 21.417 37.053 21.762 37.053 C 22.107 37.053 22.44 37.053 22.763 37.053 C 23.085 37.053 23.378 37.053 23.641 37.053 C 23.903 37.053 24.111 37.053 24.264 37.053 C 24.417 37.053 24.494 37.053 24.494 37.053 C 25.281 37.053 25.959 36.848 26.528 36.438 C 27.097 36.028 27.534 35.445 27.841 34.691 C 28.147 33.936 28.3 33.039 28.3 32 C 28.3 30.961 28.147 30.064 27.841 29.309 C 27.534 28.554 27.097 27.972 26.528 27.562 C 25.959 27.152 25.281 26.947 24.494 26.947 C 24.494 26.947 24.414 26.947 24.256 26.947 C 24.097 26.947 23.881 26.947 23.608 26.947 C 23.334 26.947 23.028 26.947 22.689 26.947 C 22.35 26.947 22 26.947 21.639 26.947 C 21.278 26.947 20.933 26.947 20.605 26.947 L 20.605 26.257 L 24.691 26.257 M 22.459 26.257 L 22.459 37.742 L 19.998 37.742 L 19.998 26.257 L 22.459 26.257 M 20.047 36.545 L 20.047 37.742 L 18.735 37.742 L 18.735 37.578 C 18.735 37.578 18.77 37.578 18.842 37.578 C 18.913 37.578 18.948 37.578 18.948 37.578 C 19.233 37.578 19.476 37.477 19.678 37.275 C 19.881 37.072 19.987 36.829 19.998 36.545 L 20.047 36.545 M 20.047 27.455 L 19.998 27.455 C 19.998 27.171 19.894 26.927 19.686 26.725 C 19.479 26.523 19.233 26.422 18.948 26.422 C 18.948 26.422 18.915 26.422 18.85 26.422 C 18.784 26.422 18.751 26.422 18.751 26.422 L 18.735 26.257 L 20.047 26.257 L 20.047 27.455 M 44.198 33.148 L 44.198 35.856 C 43.936 36.184 43.545 36.512 43.025 36.84 C 42.506 37.168 41.882 37.439 41.155 37.652 C 40.427 37.865 39.626 37.972 38.751 37.972 C 37.504 37.972 36.416 37.729 35.486 37.242 C 34.556 36.755 33.835 36.063 33.321 35.166 C 32.806 34.27 32.549 33.209 32.549 31.984 C 32.549 30.758 32.804 29.703 33.312 28.817 C 33.821 27.931 34.548 27.245 35.494 26.758 C 36.441 26.271 37.559 26.028 38.85 26.028 C 39.451 26.028 40.036 26.069 40.605 26.151 C 41.174 26.233 41.699 26.34 42.18 26.471 C 42.662 26.602 43.061 26.755 43.378 26.93 L 43.411 29.736 L 43.263 29.736 C 43.055 28.992 42.755 28.399 42.361 27.956 C 41.967 27.513 41.51 27.195 40.991 27.004 C 40.471 26.813 39.922 26.717 39.342 26.717 C 38.445 26.717 37.69 26.933 37.078 27.365 C 36.465 27.797 36.003 28.412 35.691 29.211 C 35.38 30.009 35.224 30.966 35.224 32.082 C 35.224 33.132 35.369 34.048 35.659 34.83 C 35.948 35.612 36.372 36.214 36.93 36.635 C 37.488 37.056 38.166 37.272 38.965 37.283 C 39.369 37.283 39.76 37.22 40.138 37.094 C 40.515 36.969 40.846 36.785 41.13 36.545 C 41.415 36.304 41.617 36.009 41.737 35.659 L 41.754 33.148 C 41.754 32.656 41.475 32.41 40.917 32.41 L 40.654 32.41 L 40.654 32.246 L 45.265 32.246 L 45.265 32.41 L 45.019 32.41 C 44.45 32.41 44.176 32.656 44.198 33.148" fill-rule="nonzero" style="" fill="#ffffff"/>
  <path d="M 9.342 9.342 L 59.991 9.342 L 59.991 59.991 L 9.342 59.991 L 9.342 9.342 Z M 11.242 11.242 L 11.242 58.092 L 58.092 58.092 L 58.092 11.242 L 11.242 11.242 Z M 4.01 4.01 L 54.659 4.01 L 54.659 54.659 L 4.01 54.659 L 4.01 4.01 Z M 5.907 5.907 L 5.907 52.76 L 52.76 52.76 L 52.76 5.907 L 5.907 5.907 Z" style="paint-order: stroke; fill: rgb(255, 255, 255);"/>
</svg>